<svg xmlns="http://www.w3.org/2000/svg" width="256" height="256" viewBox="0 0 100 100"><rect width="100" height="100" rx="20" fill="#000000"></rect><path d="M31.50 60.03L31.50 60.03Q30.96 60.51 30.01 60.85Q29.06 61.19 27.83 61.19L27.83 61.19Q26.40 61.19 25.35 60.74Q24.30 60.30 23.89 59.35L23.89 59.35Q20.76 52.14 18.48 46.57Q16.20 40.99 14.84 37.25L14.84 37.25L14.50 37.25Q14.30 42.08 14.13 46.12Q13.96 50.17 13.76 54.05Q13.55 57.92 13.31 61.93Q13.08 65.95 12.80 70.57L12.80 70.57Q12.26 70.77 11.41 70.94Q10.56 71.11 9.61 71.11L9.61 71.11Q5.94 71.11 5.94 68.12L5.94 68.12Q5.94 67.24 6.04 64.99Q6.14 62.75 6.31 59.66Q6.48 56.56 6.72 52.82Q6.96 49.08 7.23 45.24Q7.50 41.40 7.77 37.69Q8.04 33.99 8.32 30.86L8.32 30.86Q8.86 30.31 10.12 29.70Q11.38 29.09 13.21 29.09L13.21 29.09Q15.39 29.09 16.68 29.87Q17.97 30.65 18.72 32.22L18.72 32.22Q19.81 34.60 20.96 37.35Q22.12 40.11 23.28 42.93Q24.43 45.75 25.52 48.54Q26.61 51.33 27.63 53.77L27.63 53.77L27.97 53.77Q29.26 50.37 30.59 47.04Q31.91 43.71 33.17 40.65Q34.43 37.59 35.55 34.87Q36.67 32.15 37.62 29.97L37.62 29.97Q38.37 29.63 39.46 29.36Q40.55 29.09 41.70 29.09L41.70 29.09Q43.95 29.09 45.07 29.77Q46.19 30.45 46.53 31.74L46.53 31.74Q46.80 32.97 47.14 35.79Q47.48 38.61 47.82 42.28Q48.16 45.95 48.50 50.07Q48.84 54.18 49.12 58.02Q49.39 61.87 49.59 65.10Q49.80 68.33 49.86 70.16L49.86 70.16Q49.12 70.64 48.27 70.88Q47.42 71.11 46.26 71.11L46.26 71.11Q44.83 71.11 43.78 70.50Q42.72 69.89 42.59 68.19L42.59 68.19Q42.32 63.57 42.08 59.08Q41.84 54.59 41.64 50.58Q41.43 46.57 41.26 43.17Q41.09 39.77 40.96 37.39L40.96 37.39L40.68 37.39Q39.39 40.85 37.18 46.23Q34.97 51.60 31.50 60.03ZM94.06 69.69L94.06 69.69Q93.32 70.30 92.16 70.71Q91.00 71.11 89.44 71.11L89.44 71.11Q87.54 71.11 86.14 70.40Q84.75 69.69 83.59 67.71L83.59 67.71L72.37 48.20Q71.62 46.91 70.84 45.48Q70.06 44.05 69.35 42.62Q68.63 41.19 67.99 39.87Q67.34 38.54 66.86 37.52L66.86 37.52L66.52 37.59Q66.86 41.13 67 45.17Q67.14 49.22 67.14 52.82L67.14 52.82L67.14 70.57Q66.66 70.71 65.74 70.88Q64.82 71.05 63.87 71.05L63.87 71.05Q61.83 71.05 60.91 70.30Q60.00 69.55 60.00 67.78L60.00 67.78L60.00 30.52Q60.68 29.77 61.93 29.33Q63.19 28.89 64.62 28.89L64.62 28.89Q66.52 28.89 67.95 29.57Q69.38 30.25 70.54 32.22L70.54 32.22L81.82 51.80Q82.57 53.09 83.32 54.52Q84.07 55.95 84.78 57.38Q85.50 58.81 86.14 60.13Q86.79 61.46 87.26 62.48L87.26 62.48L87.54 62.41Q86.99 57.24 86.92 52.18Q86.86 47.11 86.86 42.28L86.86 42.28L86.86 29.36Q87.40 29.23 88.28 29.06Q89.17 28.89 90.19 28.89L90.19 28.89Q92.23 28.89 93.15 29.63Q94.06 30.38 94.06 32.15L94.06 32.15L94.06 69.69Z" fill="#fff"></path></svg>